<svg xmlns="http://www.w3.org/2000/svg" width="170.225" height="110.945" viewBox="0 0 170.225 110.945"><g transform="translate(-257.001 -251.658)"><path d="M29.278,88.822,78.655,39.448a6.1,6.1,0,0,1,8.623,0l5.76,5.76a6.1,6.1,0,0,1,.01,8.613L53.914,93.134,93.045,132.45a6.1,6.1,0,0,1-.01,8.613l-5.76,5.76a6.1,6.1,0,0,1-8.623,0L29.278,97.445A6.1,6.1,0,0,1,29.278,88.822Z" transform="translate(229.508 213.995)" fill="#ff1053" opacity="0.5"/><path d="M29.278,88.822,78.655,39.448a6.1,6.1,0,0,1,8.623,0l5.76,5.76a6.1,6.1,0,0,1,.01,8.613L53.914,93.134,93.045,132.45a6.1,6.1,0,0,1-.01,8.613l-5.76,5.76a6.1,6.1,0,0,1-8.623,0L29.278,97.445A6.1,6.1,0,0,1,29.278,88.822Z" transform="translate(280.066 213.995)" fill="#ff1053" opacity="0.3"/><path d="M29.278,88.822,78.655,39.448a6.1,6.1,0,0,1,8.623,0l5.76,5.76a6.1,6.1,0,0,1,.01,8.613L53.914,93.134,93.045,132.45a6.1,6.1,0,0,1-.01,8.613l-5.76,5.76a6.1,6.1,0,0,1-8.623,0L29.278,97.445A6.1,6.1,0,0,1,29.278,88.822Z" transform="translate(332.403 213.995)" fill="#ff1053" opacity="0.1"/></g></svg>