<svg id="branding-logo-horizontal" xmlns="http://www.w3.org/2000/svg" width="461" height="340" viewBox="0 0 461 340">
  <path id="Caminho_469" data-name="Caminho 469" d="M57.88,139.839H83.338V123.674A48.135,48.135,0,0,1,89.9,98.752a50.442,50.442,0,0,1,17.819-17.819,48.135,48.135,0,0,1,24.921-6.564V48.913a73.459,73.459,0,0,0-49.3,18.757C51.56,94.486,57.88,139.839,57.88,139.839" transform="translate(135.387 77.488)" fill="#c7e54d" stroke="rgba(0,0,0,0)" stroke-miterlimit="10" stroke-width="1"/>
  <g id="Grupo_484" data-name="Grupo 484" transform="translate(274.421 83.468)">
    <path id="Caminho_470" data-name="Caminho 470" d="M165.653,62.66H114.969V88.691H164.99c-.9,6.029-2.964,9.021-6.086,14.255a50.777,50.777,0,0,1-18.318,18.316,49.476,49.476,0,0,1-25.618,6.747v26.168a73.034,73.034,0,0,0,38.566-10.468,76.988,76.988,0,0,0,27.818-27.82c7.007-11.63,10.632-22.183,10.468-35.761V20H165.653Z" transform="translate(-114.968 -20)" fill="#242425"/>
    <rect id="Retângulo_173" data-name="Retângulo 173" width="18.999" height="25.704" transform="translate(83.249 43.257)" fill="#c7e54d" stroke="rgba(0,0,0,0)" stroke-miterlimit="10" stroke-width="1"/>
  </g>
  <g id="Grupo_483" data-name="Grupo 483" transform="translate(85.002 126.397)">
    <rect id="Retângulo_174" data-name="Retângulo 174" width="18.999" height="25.704" transform="translate(0 64.463)" fill="#c7e54d" stroke="rgba(0,0,0,0)" stroke-miterlimit="10" stroke-width="1"/>
    <path id="Caminho_472" data-name="Caminho 472" d="M45.706,91.039H95.835V64.88H46.366A51.27,51.27,0,0,1,50.636,51.7c5.516-11.789,18.192-27.181,45.2-24.955V.452C82.191.286,68.646,2.072,56.957,9.112A76.5,76.5,0,0,0,29.429,37.173c-7.042,11.689-10.878,23.811-10.821,40.5l.8,52.132H45.7Z" transform="translate(5.526 -0.441)" fill="#242425"/>
  </g>
  <rect id="Retângulo_4446" data-name="Retângulo 4446" width="461" height="340" fill="none"/>
</svg>
