<svg id="branding-logo-horizontal" xmlns="http://www.w3.org/2000/svg" viewBox="0 0 461 340"><defs><style>.cls-1{fill:#fff;}.cls-2{fill:none;}</style></defs><title>branding-logo-horizontal</title><path id="Caminho_469" data-name="Caminho 469" class="cls-1" d="M193.267,217.327h25.458V201.162a48.135,48.135,0,0,1,6.562-24.922,50.442,50.442,0,0,1,17.819-17.819,48.135,48.135,0,0,1,24.921-6.564V126.401a73.459,73.459,0,0,0-49.3,18.757c-31.78,26.816-25.46,72.169-25.46,72.169"/><g id="Grupo_484" data-name="Grupo 484"><path id="Caminho_470" data-name="Caminho 470" class="cls-1" d="M325.106,126.128H274.422v26.031h50.021c-.9,6.029-2.964,9.021-6.086,14.255a50.77688,50.77688,0,0,1-18.318,18.316,49.47605,49.47605,0,0,1-25.618,6.747v26.168a73.03379,73.03379,0,0,0,38.566-10.468,76.98811,76.98811,0,0,0,27.818-27.82c7.007-11.63,10.632-22.183,10.468-35.761V83.468H325.106Z"/><rect id="Retângulo_173" data-name="Retângulo 173" class="cls-1" x="357.66999" y="126.725" width="18.999" height="25.704"/></g><g id="Grupo_483" data-name="Grupo 483"><rect id="Retângulo_174" data-name="Retângulo 174" class="cls-1" x="85.002" y="190.86" width="18.999" height="25.704"/><path id="Caminho_472" data-name="Caminho 472" class="cls-1" d="M136.234,216.995h50.129V190.836H136.894a51.27039,51.27039,0,0,1,4.27-13.18c5.516-11.789,18.192-27.181,45.2-24.955V126.408c-13.645-.166-27.19,1.62-38.879,8.66a76.50006,76.50006,0,0,0-27.528,28.061c-7.042,11.689-10.878,23.811-10.821,40.5l.8,52.132h26.292Z"/></g><rect id="Retângulo_4446" data-name="Retângulo 4446" class="cls-2" width="461" height="340"/></svg>